<?xml version="1.0" encoding="UTF-8"?>
<!DOCTYPE svg PUBLIC "-//W3C//DTD SVG 1.1//EN" "http://www.w3.org/Graphics/SVG/1.1/DTD/svg11.dtd">
<svg xmlns="http://www.w3.org/2000/svg" version="1.1" width="300px" height="150px" style="shape-rendering:geometricPrecision; text-rendering:geometricPrecision; image-rendering:optimizeQuality; fill-rule:evenodd; clip-rule:evenodd" xmlns:xlink="http://www.w3.org/1999/xlink">
<g><path style="opacity:1" fill="#fefffe" d="M -0.5,-0.5 C 99.5,-0.5 199.5,-0.5 299.5,-0.5C 299.5,3.16667 299.5,6.83333 299.5,10.5C 199.5,10.5 99.5,10.5 -0.5,10.5C -0.5,6.83333 -0.5,3.16667 -0.5,-0.5 Z"/></g>
<g><path style="opacity:1" fill="#212121" d="M -0.5,10.5 C 99.5,10.5 199.5,10.5 299.5,10.5C 299.5,11.1667 299.5,11.8333 299.5,12.5C 199.5,12.5 99.5,12.5 -0.5,12.5C -0.5,11.8333 -0.5,11.1667 -0.5,10.5 Z"/></g>
<g><path style="opacity:1" fill="#fdfdfd" d="M -0.5,12.5 C 99.5,12.5 199.5,12.5 299.5,12.5C 299.5,53.8333 299.5,95.1667 299.5,136.5C 199.5,136.5 99.5,136.5 -0.5,136.5C -0.5,95.1667 -0.5,53.8333 -0.5,12.5 Z"/></g>
<g><path style="opacity:1" fill="#111111" d="M 79.5,19.5 C 81.8333,19.5 84.1667,19.5 86.5,19.5C 86.3341,24.5111 86.5007,29.5111 87,34.5C 90.9326,31.9012 94.9326,31.9012 99,34.5C 100.351,40.0716 100.851,45.7383 100.5,51.5C 98.1667,51.5 95.8333,51.5 93.5,51.5C 93.6658,46.8215 93.4992,42.1548 93,37.5C 90.7328,36.0652 88.7328,36.3985 87,38.5C 86.501,42.8206 86.3343,47.1539 86.5,51.5C 84.1667,51.5 81.8333,51.5 79.5,51.5C 79.5,40.8333 79.5,30.1667 79.5,19.5 Z"/></g>
<g><path style="opacity:1" fill="#080808" d="M 62.5,20.5 C 67.0803,20.1134 71.4136,20.9468 75.5,23C 74.8333,24.3333 74.1667,25.6667 73.5,27C 70.2103,26.6315 66.877,26.6315 63.5,27C 62.1667,28.3333 62.1667,29.6667 63.5,31C 66.8333,32.6667 70.1667,34.3333 73.5,36C 76.8481,39.4186 77.3481,43.252 75,47.5C 68.0277,52.6606 60.861,52.8273 53.5,48C 54.5418,46.082 55.7085,44.2487 57,42.5C 60.0877,45.0975 63.5877,45.9308 67.5,45C 70.1667,43.3333 70.1667,41.6667 67.5,40C 63.1306,38.5788 59.6306,36.0788 57,32.5C 56.3333,30.1667 56.3333,27.8333 57,25.5C 58.7297,23.5981 60.563,21.9314 62.5,20.5 Z"/></g>
<g><path style="opacity:1" fill="#0b0b0b" d="M 172.5,26.5 C 168.833,26.5 165.167,26.5 161.5,26.5C 161.5,28.8333 161.5,31.1667 161.5,33.5C 164.833,33.5 168.167,33.5 171.5,33.5C 171.5,35.1667 171.5,36.8333 171.5,38.5C 168.167,38.5 164.833,38.5 161.5,38.5C 161.5,40.8333 161.5,43.1667 161.5,45.5C 165.167,45.5 168.833,45.5 172.5,45.5C 172.5,47.5 172.5,49.5 172.5,51.5C 166.5,51.5 160.5,51.5 154.5,51.5C 154.5,41.1667 154.5,30.8333 154.5,20.5C 160.5,20.5 166.5,20.5 172.5,20.5C 172.5,22.5 172.5,24.5 172.5,26.5 Z"/></g>
<g><path style="opacity:1" fill="#080808" d="M 109.5,32.5 C 118.853,29.9981 124.519,33.3314 126.5,42.5C 125.114,48.8699 121.114,51.8699 114.5,51.5C 106.602,51.3773 103.102,47.3773 104,39.5C 104.938,36.4025 106.772,34.0691 109.5,32.5 Z"/></g>
<g><path style="opacity:1" fill="#6b6b6b" d="M 130.5,32.5 C 130.5,41.8333 130.5,51.1667 130.5,60.5C 132.5,60.5 134.5,60.5 136.5,60.5C 134.393,61.4682 132.059,61.8016 129.5,61.5C 129.173,51.6522 129.506,41.9856 130.5,32.5 Z"/></g>
<g><path style="opacity:1" fill="#040404" d="M 130.5,32.5 C 132.821,32.2289 134.821,32.8955 136.5,34.5C 147.944,30.0954 152.778,34.0954 151,46.5C 149.336,50.0842 146.503,51.7508 142.5,51.5C 140.307,51.6738 138.473,51.0071 137,49.5C 136.501,53.1516 136.335,56.8183 136.5,60.5C 134.5,60.5 132.5,60.5 130.5,60.5C 130.5,51.1667 130.5,41.8333 130.5,32.5 Z"/></g>
<g><path style="opacity:1" fill="#b9b9b9" d="M 172.5,26.5 C 169.375,27.4794 166.042,27.8128 162.5,27.5C 162.5,29.1667 162.5,30.8333 162.5,32.5C 165.833,32.5 169.167,32.5 172.5,32.5C 172.5,34.8333 172.5,37.1667 172.5,39.5C 169.167,39.5 165.833,39.5 162.5,39.5C 162.5,41.1667 162.5,42.8333 162.5,44.5C 166.042,44.1872 169.375,44.5206 172.5,45.5C 168.833,45.5 165.167,45.5 161.5,45.5C 161.5,43.1667 161.5,40.8333 161.5,38.5C 164.833,38.5 168.167,38.5 171.5,38.5C 171.5,36.8333 171.5,35.1667 171.5,33.5C 168.167,33.5 164.833,33.5 161.5,33.5C 161.5,31.1667 161.5,28.8333 161.5,26.5C 165.167,26.5 168.833,26.5 172.5,26.5 Z"/></g>
<g><path style="opacity:1" fill="#070707" d="M 183.5,31.5 C 187.115,31.2055 190.282,32.2055 193,34.5C 194.754,32.75 196.921,32.0833 199.5,32.5C 199.5,38.8333 199.5,45.1667 199.5,51.5C 196.856,51.8399 194.523,51.1733 192.5,49.5C 187.416,52.6357 182.916,51.969 179,47.5C 176.159,40.8715 177.659,35.5382 183.5,31.5 Z"/></g>
<g><path style="opacity:1" fill="#0e0e0e" d="M 209.5,31.5 C 212.545,31.5079 215.545,31.8413 218.5,32.5C 218.509,34.3084 218.009,35.9751 217,37.5C 214.861,36.2309 212.695,36.2309 210.5,37.5C 213.492,38.8873 216.325,40.5539 219,42.5C 220.123,45.9563 219.29,48.7897 216.5,51C 211.816,52.1022 207.483,51.4355 203.5,49C 204.618,47.9264 205.618,46.7598 206.5,45.5C 208.737,47.8165 211.07,47.9832 213.5,46C 211.349,44.2261 209.016,42.7261 206.5,41.5C 204.583,37.1336 205.583,33.8003 209.5,31.5 Z"/></g>
<g><path style="opacity:1" fill="#070707" d="M 230.5,60.5 C 227.941,60.8016 225.607,60.4682 223.5,59.5C 225.429,55.9734 227.096,52.3067 228.5,48.5C 225.979,43.2914 223.312,38.1248 220.5,33C 222.833,32.3333 225.167,32.3333 227.5,33C 229.041,35.9156 230.707,38.7489 232.5,41.5C 234.253,38.9952 235.753,36.3286 237,33.5C 239.401,32.3977 241.901,32.231 244.5,33C 239.169,41.8303 234.502,50.997 230.5,60.5 Z"/></g>
<g><path style="opacity:1" fill="#f0f0f0" d="M 112.5,37.5 C 119.486,37.331 121.153,40.1643 117.5,46C 110.416,46.475 108.749,43.6417 112.5,37.5 Z"/></g>
<g><path style="opacity:1" fill="#ededed" d="M 137.5,37.5 C 144.997,36.8038 146.997,39.6372 143.5,46C 136.781,46.7259 134.781,43.8925 137.5,37.5 Z"/></g>
<g><path style="opacity:1" fill="#ececec" d="M 185.5,37.5 C 192.997,36.8038 194.997,39.6372 191.5,46C 184.781,46.7259 182.781,43.8925 185.5,37.5 Z"/></g>
<g><path style="opacity:1" fill="#747474" d="M 223.5,59.5 C 225.607,60.4682 227.941,60.8016 230.5,60.5C 227.976,61.8003 225.309,61.8003 222.5,60.5C 222.624,59.8933 222.957,59.56 223.5,59.5 Z"/></g>
<g><path style="opacity:1" fill="#7b7b7b" d="M 148.5,69.5 C 148.196,70.1499 147.863,70.8165 147.5,71.5C 150.785,72.3236 154.118,72.8236 157.5,73C 161.348,83.5524 164.348,94.3857 166.5,105.5C 163.608,109.004 163.942,112.004 167.5,114.5C 164.984,114.755 162.65,115.589 160.5,117C 149.376,117.865 138.376,117.032 127.5,114.5C 128.5,113.667 129.5,112.833 130.5,112C 135.167,111.667 139.833,111.333 144.5,111C 145.727,109.413 145.394,108.079 143.5,107C 137.743,105.443 131.91,105.277 126,106.5C 122.112,106.406 118.279,105.906 114.5,105C 104.267,101.217 94.2668,96.8837 84.5,92C 74.3666,88.2173 64.0333,85.5506 53.5,84C 58.3622,80.7762 63.6956,79.7762 69.5,81C 81.9554,83.6972 94.2887,86.8638 106.5,90.5C 110.662,90.3508 111.328,88.8508 108.5,86C 101.254,84.0581 93.9205,82.3914 86.5,81C 81.5076,78.8391 76.8409,76.1724 72.5,73C 72.8333,72.8333 73.1667,72.6667 73.5,72.5C 77.34,73.9922 81.34,74.6589 85.5,74.5C 92.9346,73.8016 100.268,72.4683 107.5,70.5C 114.886,71.7965 122.053,73.7965 129,76.5C 130.167,76.1667 131.333,75.8333 132.5,75.5C 132.291,74.914 131.957,74.414 131.5,74C 126.249,71.4722 120.916,69.1389 115.5,67C 124.5,66.3333 133.5,66.3333 142.5,67C 144.723,67.5662 146.723,68.3995 148.5,69.5 Z"/></g>
<g><path style="opacity:1" fill="#808080" d="M 77.5,96.5 C 84.8727,97.1241 91.5393,99.6241 97.5,104C 95.8333,104.667 94.1667,104.667 92.5,104C 87.6366,101.934 82.6366,100.268 77.5,99C 76.4019,98.2303 76.4019,97.397 77.5,96.5 Z"/></g>
<g><path style="opacity:1" fill="#252525" d="M 148.5,69.5 C 152.177,70.0848 155.843,70.7515 159.5,71.5C 161.287,73.8584 162.287,76.525 162.5,79.5C 178.17,79.3334 193.837,79.5001 209.5,80C 210.416,80.3742 211.25,80.8742 212,81.5C 210.828,89.196 209.162,96.8627 207,104.5C 206.167,105.333 205.333,106.167 204.5,107C 192.5,107.333 180.5,107.667 168.5,108C 167.167,109.333 167.167,110.667 168.5,112C 180.514,112.167 192.514,112.667 204.5,113.5C 203.167,114.167 201.833,114.833 200.5,115.5C 203.038,117.678 203.038,119.678 200.5,121.5C 198.162,124.139 195.995,123.806 194,120.5C 193.376,118.536 193.876,116.869 195.5,115.5C 188.5,114.167 181.5,114.167 174.5,115.5C 177.038,117.678 177.038,119.678 174.5,121.5C 173.686,123.273 172.352,123.773 170.5,123C 167.05,120.842 166.717,118.342 169.5,115.5C 169.043,114.702 168.376,114.369 167.5,114.5C 163.942,112.004 163.608,109.004 166.5,105.5C 164.348,94.3857 161.348,83.5524 157.5,73C 154.118,72.8236 150.785,72.3236 147.5,71.5C 147.863,70.8165 148.196,70.1499 148.5,69.5 Z"/></g>
<g><path style="opacity:1" fill="#e8e8e8" d="M 205.5,93.5 C 206.376,93.3691 207.043,93.7025 207.5,94.5C 206.103,96.9818 205.269,99.6484 205,102.5C 202.441,105.349 199.274,106.183 195.5,105C 199.439,101.571 202.772,97.7372 205.5,93.5 Z"/></g>
<g><path style="opacity:1" fill="#ededed" d="M 206.5,81.5 C 208.252,81.4176 209.252,82.2509 209.5,84C 205.653,91.9786 200.319,98.9786 193.5,105C 190.167,105.667 186.833,105.667 183.5,105C 191.369,97.2983 199.036,89.4649 206.5,81.5 Z"/></g>
<g><path style="opacity:1" fill="#ececec" d="M 194.5,81.5 C 197.572,81.1826 200.572,81.5159 203.5,82.5C 196.348,90.1523 189.015,97.6523 181.5,105C 178.446,105.821 175.446,105.655 172.5,104.5C 179.855,96.8128 187.188,89.1461 194.5,81.5 Z"/></g>
<g><path style="opacity:1" fill="#ededed" d="M 182.5,81.5 C 185.572,81.1826 188.572,81.5159 191.5,82.5C 184.515,89.9857 177.348,97.319 170,104.5C 167.81,102.217 167.143,99.5505 168,96.5C 173.037,91.6313 177.87,86.6313 182.5,81.5 Z"/></g>
<g><path style="opacity:1" fill="#f3f3f3" d="M 168.5,83.5 C 172.198,81.494 176.198,80.994 180.5,82C 176,86.5 171.5,91 167,95.5C 164.584,91.0174 165.084,87.0174 168.5,83.5 Z"/></g>
<g><path style="opacity:1" fill="#e1e1e1" d="M 168.5,83.5 C 166.983,83.5106 165.816,84.1772 165,85.5C 162.842,83.306 163.175,81.9727 166,81.5C 167.376,81.6842 168.209,82.3509 168.5,83.5 Z"/></g>
<g><path style="opacity:1" fill="#f2f2f2" d="M 174.5,121.5 C 170.862,122.263 169.362,120.93 170,117.5C 173.669,115.991 175.169,117.324 174.5,121.5 Z"/></g>
<g><path style="opacity:1" fill="#f1f1f1" d="M 200.5,121.5 C 196.862,122.263 195.362,120.93 196,117.5C 199.669,115.991 201.169,117.324 200.5,121.5 Z"/></g>
<g><path style="opacity:1" fill="#3a3a3a" d="M -0.5,136.5 C 99.5,136.5 199.5,136.5 299.5,136.5C 299.5,137.167 299.5,137.833 299.5,138.5C 199.5,138.5 99.5,138.5 -0.5,138.5C -0.5,137.833 -0.5,137.167 -0.5,136.5 Z"/></g>
<g><path style="opacity:1" fill="#fefffe" d="M -0.5,138.5 C 99.5,138.5 199.5,138.5 299.5,138.5C 299.5,142.167 299.5,145.833 299.5,149.5C 199.5,149.5 99.5,149.5 -0.5,149.5C -0.5,145.833 -0.5,142.167 -0.5,138.5 Z"/></g>
</svg>
